<svg id="Capa_1" enable-background="new 0 0 512 512" height="512" viewBox="0 0 512 512" width="512" xmlns="http://www.w3.org/2000/svg"><g><path d="m470.592 108.716v-29.577h-109.098l38.077-46.501-23.211-19.006-53.64 65.507h-85.314c-9.222-45.103-49.21-79.139-96.998-79.139-54.589 0-99 44.411-99 99s44.411 99 99 99c16.981 0 32.976-4.3 46.957-11.864l95.043 116.538v179.326h-59.666v30h149.333v-30h-59.667v-179.326zm-307.31.423h91.85c-6.512 9.912-10.253 21.093-10.674 32.187-.565 14.871 5.052 28.395 15.412 37.104 7.769 6.53 17.743 9.969 28.384 9.969 3.551 0 7.176-.383 10.817-1.162 13.385-2.863 26.035-10.718 35.618-22.119 9.585-11.401 15.149-25.212 15.67-38.891.228-5.993-.565-11.759-2.251-17.088h83.427l-134.127 164.461zm157.099 15.948c-.264 6.943-3.419 14.497-8.655 20.726-5.235 6.228-12.135 10.634-18.93 12.087-3.192.683-9.208 1.274-13.621-2.435-7.627-6.412-5.798-22.172 3.915-33.726 6.696-7.965 16.004-12.582 23.641-12.582 3.44 0 6.542.938 8.911 2.929 4.412 3.71 4.863 9.738 4.739 13.001zm-179.973 42.913c-38.047 0-69-30.953-69-69s30.953-69 69-69c31.144 0 57.522 20.745 66.073 49.139h-82.256v29.577l43.676 53.554c-8.429 3.677-17.724 5.73-27.493 5.73z"/></g></svg>