<?xml version="1.0" encoding="UTF-8" standalone="no"?>
<!-- Created with Inkscape (http://www.inkscape.org/) -->

<svg
   version="1.1"
   id="svg5655"
   xml:space="preserve"
   width="682.66669"
   height="682.66669"
   viewBox="0 0 682.66669 682.66669"
   xmlns="http://www.w3.org/2000/svg"
   xmlns:svg="http://www.w3.org/2000/svg"><defs
     id="defs5659"><clipPath
       clipPathUnits="userSpaceOnUse"
       id="clipPath5669"><path
         d="M 0,512 H 512 V 0 H 0 Z"
         id="path5667" /></clipPath></defs><g
     id="g5661"
     transform="matrix(1.3333333,0,0,-1.3333333,0,682.66667)"><g
       id="g5663"><g
         id="g5665"
         clip-path="url(#clipPath5669)"><g
           id="g5671"
           transform="translate(368.9238,285.6348)"><path
             d="M 0,0 C -18.34,4.505 -35.745,13.939 -50.088,28.276 -64.46,42.612 -73.871,60.009 -78.406,78.368 L -304.498,-159.57 c -10.999,-11.588 -11.282,-29.778 0,-41.082 l 12.671,-12.665 12.699,-12.665 c 11.281,-11.305 29.509,-10.994 41.074,0 z"
             style="fill:#60a4ff;fill-opacity:1;fill-rule:evenodd;stroke:none"
             id="path5673" /></g><g
           id="g5675"
           transform="translate(280.7041,280.6924)"><path
             d="M 0,0 -49.408,-49.385"
             style="fill:none;stroke:#000000;stroke-width:20.176;stroke-linecap:round;stroke-linejoin:round;stroke-miterlimit:10;stroke-dasharray:none;stroke-opacity:1"
             id="path5677" /></g><g
           id="g5679"
           transform="translate(10,15)"><path
             d="M 0,0 C 0,0 57.487,1.672 67.097,57.317"
             style="fill:none;stroke:#000000;stroke-width:20.176;stroke-linecap:round;stroke-linejoin:round;stroke-miterlimit:10;stroke-dasharray:none;stroke-opacity:1"
             id="path5681" /></g><g
           id="g5683"
           transform="translate(492.3447,122.7783)"><path
             d="M 0,0 V 38.617 C 0,68.707 -41.782,93.3 -71.887,93.3 V -52.897"
             style="fill:none;stroke:#000000;stroke-width:20.176;stroke-linecap:round;stroke-linejoin:round;stroke-miterlimit:10;stroke-dasharray:none;stroke-opacity:1"
             id="path5685" /></g><g
           id="g5687"
           transform="translate(78.5137,453.0811)"><path
             d="m 0,0 v -13.373 -13.401 c 0,-6.149 4.677,-9.916 10.403,-8.387 l 111.488,29.665 c 5.725,1.53 10.43,7.791 10.43,13.911 v 13.401 13.373 c 0,6.149 -4.705,9.917 -10.43,8.387 L 10.403,13.94 C 4.677,12.41 0,6.148 0,0"
             style="fill:#60a4ff;fill-opacity:1;fill-rule:evenodd;stroke:none"
             id="path5689" /></g><g
           id="g5691"
           transform="translate(177.1885,398.626)"><path
             d="m 0,0 c -18.596,0 -33.647,-12.807 -33.647,-28.616 0,-15.81 15.051,-28.645 33.647,-28.645 18.566,0 33.646,12.835 33.646,28.645 C 33.646,-12.807 18.566,0 0,0"
             style="fill:#60a4ff;fill-opacity:1;fill-rule:evenodd;stroke:none"
             id="path5693" /></g><g
           id="g5695"
           transform="translate(78.5137,319.917)"><path
             d="M 0,0 C 0,15.81 -15.08,28.645 -33.647,28.645 -52.243,28.645 -67.295,15.81 -67.295,0 c 0,-15.81 15.052,-28.645 33.648,-28.645 C -15.08,-28.645 0,-15.81 0,0"
             style="fill:#60a4ff;fill-opacity:1;fill-rule:evenodd;stroke:none"
             id="path5697" /></g><g
           id="g5699"
           transform="translate(304.209,447.415)"><path
             d="m 0,0 c -26.532,-41.479 -21.657,-97.238 14.627,-133.504 36.255,-36.238 92.041,-41.111 133.54,-14.592 -1.898,1.049 -3.713,2.38 -5.329,4.024 L 4.025,-5.327 C 2.409,-3.712 1.049,-1.927 0,0"
             style="fill:#e8e7e9;fill-opacity:1;fill-rule:evenodd;stroke:none"
             id="path5701" /></g><g
           id="g5703"
           transform="translate(308.2344,442.0879)"><path
             d="m 0,0 138.812,-138.745 c 1.617,-1.644 3.431,-2.975 5.33,-4.024 9.184,-5.099 21.033,-3.74 28.8,4.024 7.739,7.734 9.099,19.578 4.026,28.758 -1.077,1.898 -2.41,3.711 -4.026,5.326 L 34.101,34.085 c -1.616,1.643 -3.402,2.975 -5.33,4.023 C 19.587,43.18 7.767,41.848 0,34.085 -7.768,26.35 -9.1,14.507 -4.025,5.327 -2.977,3.4 -1.616,1.615 0,0"
             style="fill:#b3b0b5;fill-opacity:1;fill-rule:evenodd;stroke:none"
             id="path5705" /></g><g
           id="g5707"
           transform="translate(342.335,476.1729)"><path
             d="m 0,0 138.842,-138.746 c 1.615,-1.615 2.948,-3.428 4.025,-5.326 26.504,41.479 21.656,97.238 -14.627,133.504 C 91.956,25.669 36.198,30.542 -5.329,4.023 -3.401,2.975 -1.615,1.643 0,0"
             style="fill:#e8e7e9;fill-opacity:1;fill-rule:evenodd;stroke:none"
             id="path5709" /></g><g
           id="g5711"
           transform="translate(373.5732,109.8018)"><path
             d="m 0,0 c -25.909,0 -46.914,-17.878 -46.914,-39.921 0,-22.043 21.005,-39.921 46.914,-39.921 25.908,0 46.885,17.878 46.885,39.921 C 46.885,-17.878 25.908,0 0,0"
             style="fill:#ff6977;fill-opacity:1;fill-rule:evenodd;stroke:none"
             id="path5713" /></g><g
           id="g5715"
           transform="translate(88.917,467.0215)"><path
             d="m 0,0 111.487,29.636 c 5.726,1.53 10.431,-2.239 10.431,-8.387 V -5.525 c 0,-6.121 -4.705,-12.381 -10.431,-13.912 L 0,-49.102 c -5.727,-1.529 -10.403,2.239 -10.403,8.387 V -13.94 C -10.403,-7.792 -5.727,-1.53 0,0 Z"
             style="fill:none;stroke:#000000;stroke-width:20.176;stroke-linecap:round;stroke-linejoin:round;stroke-miterlimit:10;stroke-dasharray:none;stroke-opacity:1"
             id="path5717" /></g><g
           id="g5719"
           transform="translate(78.5137,439.708)"><path
             d="M 0,0 V -117.014"
             style="fill:none;stroke:#000000;stroke-width:20.176;stroke-linecap:round;stroke-linejoin:round;stroke-miterlimit:10;stroke-dasharray:none;stroke-opacity:1"
             id="path5721" /></g><g
           id="g5723"
           transform="translate(210.835,474.8975)"><path
             d="M 0,0 V -104.888"
             style="fill:none;stroke:#000000;stroke-width:20.176;stroke-linecap:round;stroke-linejoin:round;stroke-miterlimit:10;stroke-dasharray:none;stroke-opacity:1"
             id="path5725" /></g><g
           id="g5727"
           transform="translate(44.8662,291.2725)"><path
             d="M 0,0 C 18.539,0 33.647,12.863 33.647,28.645 33.647,44.426 18.539,57.289 0,57.289 -18.539,57.289 -33.647,44.426 -33.647,28.645 -33.647,12.863 -18.539,0 0,0 Z"
             style="fill:none;stroke:#000000;stroke-width:20.176;stroke-linecap:round;stroke-linejoin:round;stroke-miterlimit:10;stroke-dasharray:none;stroke-opacity:1"
             id="path5729" /></g><g
           id="g5731"
           transform="translate(177.1885,398.626)"><path
             d="m 0,0 c 18.566,0 33.646,-12.807 33.646,-28.616 0,-15.81 -15.08,-28.645 -33.646,-28.645 -18.596,0 -33.647,12.835 -33.647,28.645 C -33.647,-12.807 -18.596,0 0,0 Z"
             style="fill:none;stroke:#000000;stroke-width:20.176;stroke-linecap:round;stroke-linejoin:round;stroke-miterlimit:10;stroke-dasharray:none;stroke-opacity:1"
             id="path5733" /></g><g
           id="g5735"
           transform="translate(282.9209,203.4414)"><path
             d="M 0,0 12.104,12.041 86.003,82.193 M 7.597,160.562 -218.495,-77.377 c -10.999,-11.588 -11.282,-29.777 0,-41.082 l 25.37,-25.33 c 11.281,-11.305 29.509,-10.993 41.074,0 l 86.003,81.882"
             style="fill:none;stroke:#000000;stroke-width:20.176;stroke-linecap:round;stroke-linejoin:round;stroke-miterlimit:10;stroke-dasharray:none;stroke-opacity:1"
             id="path5737" /></g><g
           id="g5739"
           transform="translate(481.1768,337.4268)"><path
             d="m 0,0 -138.842,138.746 c -9.383,9.378 -24.718,9.378 -34.1,0 -9.383,-9.379 -9.383,-24.706 0,-34.085 L -34.13,-34.084 c 9.383,-9.378 24.747,-9.378 34.13,0 9.383,9.35 9.383,24.706 0,34.084 z"
             style="fill:none;stroke:#000000;stroke-width:20.176;stroke-linecap:round;stroke-linejoin:round;stroke-miterlimit:10;stroke-dasharray:none;stroke-opacity:1"
             id="path5741" /></g><g
           id="g5743"
           transform="translate(304.209,447.415)"><path
             d="m 0,0 c -26.532,-41.479 -21.657,-97.238 14.627,-133.504 36.255,-36.238 92.041,-41.111 133.54,-14.592 m 32.826,32.782 c 26.504,41.479 21.656,97.238 -14.627,133.503 C 130.082,54.427 74.324,59.3 32.797,32.781"
             style="fill:none;stroke:#000000;stroke-width:20.176;stroke-linecap:round;stroke-linejoin:round;stroke-miterlimit:10;stroke-dasharray:none;stroke-opacity:1"
             id="path5745" /></g><g
           id="g5747"
           transform="translate(373.5732,29.96)"><path
             d="M 0,0 C 25.823,0 46.885,17.935 46.885,39.921 46.885,61.907 25.823,79.842 0,79.842 -25.853,79.842 -46.914,61.907 -46.914,39.921 -46.914,17.935 -25.853,0 0,0 Z"
             style="fill:none;stroke:#000000;stroke-width:20.176;stroke-linecap:round;stroke-linejoin:round;stroke-miterlimit:10;stroke-dasharray:none;stroke-opacity:1"
             id="path5749" /></g><g
           id="g5751"
           transform="translate(249.7549,172.4736)"><path
             d="M 0,0 0.142,0.17"
             style="fill:none;stroke:#000000;stroke-width:20.176;stroke-linecap:round;stroke-linejoin:round;stroke-miterlimit:10;stroke-dasharray:none;stroke-opacity:1"
             id="path5753" /></g></g></g></g></svg>
