<?xml version="1.0" encoding="UTF-8" standalone="no"?>
<!-- Created with Inkscape (http://www.inkscape.org/) -->

<svg
   version="1.1"
   id="svg4107"
   xml:space="preserve"
   width="682.66669"
   height="682.66669"
   viewBox="0 0 682.66669 682.66669"
   xmlns="http://www.w3.org/2000/svg"
   xmlns:svg="http://www.w3.org/2000/svg"><defs
     id="defs4111"><clipPath
       clipPathUnits="userSpaceOnUse"
       id="clipPath4125"><path
         d="M 0,512 H 512 V 0 H 0 Z"
         id="path4123" /></clipPath></defs><g
     id="g4113"
     transform="matrix(1.3333333,0,0,-1.3333333,0,682.66667)"><g
       id="g4115"
       transform="translate(280.7041,280.6924)"><path
         d="M 0,0 -49.408,-49.385"
         style="fill:none;stroke:#000000;stroke-width:20.176;stroke-linecap:round;stroke-linejoin:round;stroke-miterlimit:10;stroke-dasharray:none;stroke-opacity:1"
         id="path4117" /></g><g
       id="g4119"><g
         id="g4121"
         clip-path="url(#clipPath4125)"><g
           id="g4127"
           transform="translate(10,15)"><path
             d="M 0,0 C 0,0 57.487,1.672 67.097,57.317"
             style="fill:none;stroke:#000000;stroke-width:20.176;stroke-linecap:round;stroke-linejoin:round;stroke-miterlimit:10;stroke-dasharray:none;stroke-opacity:1"
             id="path4129" /></g><g
           id="g4131"
           transform="translate(492.3447,122.7783)"><path
             d="M 0,0 V 38.617 C 0,68.707 -41.782,93.3 -71.887,93.3 V -52.897"
             style="fill:none;stroke:#000000;stroke-width:20.176;stroke-linecap:round;stroke-linejoin:round;stroke-miterlimit:10;stroke-dasharray:none;stroke-opacity:1"
             id="path4133" /></g><g
           id="g4135"
           transform="translate(88.917,467.0215)"><path
             d="m 0,0 111.487,29.636 c 5.726,1.53 10.431,-2.239 10.431,-8.387 V -5.525 c 0,-6.121 -4.705,-12.381 -10.431,-13.912 L 0,-49.102 c -5.727,-1.529 -10.403,2.239 -10.403,8.387 V -13.94 C -10.403,-7.792 -5.727,-1.53 0,0 Z"
             style="fill:none;stroke:#000000;stroke-width:20.176;stroke-linecap:round;stroke-linejoin:round;stroke-miterlimit:10;stroke-dasharray:none;stroke-opacity:1"
             id="path4137" /></g><g
           id="g4139"
           transform="translate(78.5137,439.708)"><path
             d="M 0,0 V -117.014"
             style="fill:none;stroke:#000000;stroke-width:20.176;stroke-linecap:round;stroke-linejoin:round;stroke-miterlimit:10;stroke-dasharray:none;stroke-opacity:1"
             id="path4141" /></g><g
           id="g4143"
           transform="translate(210.835,474.8975)"><path
             d="M 0,0 V -104.888"
             style="fill:none;stroke:#000000;stroke-width:20.176;stroke-linecap:round;stroke-linejoin:round;stroke-miterlimit:10;stroke-dasharray:none;stroke-opacity:1"
             id="path4145" /></g><g
           id="g4147"
           transform="translate(44.8662,291.2725)"><path
             d="M 0,0 C 18.539,0 33.647,12.863 33.647,28.645 33.647,44.426 18.539,57.289 0,57.289 -18.539,57.289 -33.647,44.426 -33.647,28.645 -33.647,12.863 -18.539,0 0,0 Z"
             style="fill:none;stroke:#000000;stroke-width:20.176;stroke-linecap:round;stroke-linejoin:round;stroke-miterlimit:10;stroke-dasharray:none;stroke-opacity:1"
             id="path4149" /></g><g
           id="g4151"
           transform="translate(177.1885,398.626)"><path
             d="m 0,0 c 18.566,0 33.646,-12.807 33.646,-28.616 0,-15.81 -15.08,-28.645 -33.646,-28.645 -18.596,0 -33.647,12.835 -33.647,28.645 C -33.647,-12.807 -18.596,0 0,0 Z"
             style="fill:none;stroke:#000000;stroke-width:20.176;stroke-linecap:round;stroke-linejoin:round;stroke-miterlimit:10;stroke-dasharray:none;stroke-opacity:1"
             id="path4153" /></g><g
           id="g4155"
           transform="translate(282.9209,203.4414)"><path
             d="M 0,0 12.104,12.041 86.003,82.193 M 7.597,160.562 -218.495,-77.377 c -10.999,-11.588 -11.282,-29.777 0,-41.082 l 25.37,-25.33 c 11.281,-11.305 29.509,-10.993 41.074,0 l 86.003,81.882"
             style="fill:none;stroke:#000000;stroke-width:20.176;stroke-linecap:round;stroke-linejoin:round;stroke-miterlimit:10;stroke-dasharray:none;stroke-opacity:1"
             id="path4157" /></g><g
           id="g4159"
           transform="translate(481.1768,337.4268)"><path
             d="m 0,0 -138.842,138.746 c -9.383,9.378 -24.718,9.378 -34.1,0 -9.383,-9.379 -9.383,-24.706 0,-34.085 L -34.13,-34.084 c 9.383,-9.378 24.747,-9.378 34.13,0 9.383,9.35 9.383,24.706 0,34.084 z"
             style="fill:none;stroke:#000000;stroke-width:20.176;stroke-linecap:round;stroke-linejoin:round;stroke-miterlimit:10;stroke-dasharray:none;stroke-opacity:1"
             id="path4161" /></g><g
           id="g4163"
           transform="translate(304.209,447.415)"><path
             d="m 0,0 c -26.532,-41.479 -21.657,-97.238 14.627,-133.504 36.255,-36.238 92.041,-41.111 133.54,-14.592 m 32.826,32.782 c 26.504,41.479 21.656,97.238 -14.627,133.503 C 130.082,54.427 74.324,59.3 32.797,32.781"
             style="fill:none;stroke:#000000;stroke-width:20.176;stroke-linecap:round;stroke-linejoin:round;stroke-miterlimit:10;stroke-dasharray:none;stroke-opacity:1"
             id="path4165" /></g><g
           id="g4167"
           transform="translate(373.5732,29.96)"><path
             d="M 0,0 C 25.823,0 46.885,17.935 46.885,39.921 46.885,61.907 25.823,79.842 0,79.842 -25.853,79.842 -46.914,61.907 -46.914,39.921 -46.914,17.935 -25.853,0 0,0 Z"
             style="fill:none;stroke:#000000;stroke-width:20.176;stroke-linecap:round;stroke-linejoin:round;stroke-miterlimit:10;stroke-dasharray:none;stroke-opacity:1"
             id="path4169" /></g><g
           id="g4171"
           transform="translate(249.7549,172.4736)"><path
             d="M 0,0 0.142,0.17"
             style="fill:none;stroke:#000000;stroke-width:20.176;stroke-linecap:round;stroke-linejoin:round;stroke-miterlimit:10;stroke-dasharray:none;stroke-opacity:1"
             id="path4173" /></g></g></g></g></svg>
