<svg id="Capa_1" enable-background="new 0 0 512 512" height="512" viewBox="0 0 512 512" width="512" xmlns="http://www.w3.org/2000/svg"><g><g><circle cx="140.408" cy="99" fill="#fdb902" r="83.5"/><path d="m140.408 198c-54.589 0-99-44.411-99-99s44.411-99 99-99 99 44.411 99 99-44.411 99-99 99zm0-168c-38.047 0-69 30.953-69 69s30.953 69 69 69 69-30.953 69-69-30.953-69-69-69z" fill="#fdd902"/></g><g><g><path d="m311.723 300.113 158.869-220.974h-174.22l-8.372 101.194 8.372 331.667h75.276v-30h-59.925z" fill="#afd7fd"/><path d="m122.726 79.139 158.867 220.973v181.888h-59.924v30h74.703v-432.861z" fill="#c4e2fe"/></g><g><path d="m412.075 109.139h-115.703l-8.372 61.527 8.372 98.609.287.399z" fill="#ff3a3b"/><path d="m181.242 109.139 115.13 160.136v-160.136z" fill="#ff5645"/></g><path d="m338.983 106.631 60.588-73.993-23.211-19.006-76.151 92.999z" fill="#fdc673"/><g><path d="m347.582 109.139c-2.508-7.9-7.008-14.828-13.224-20.031-10.077-8.435-23.857-11.693-37.987-9.065l-8.371 15.957 8.372 21.333z" fill="#0dca71"/><path d="m296.372 80.043c-.461.086-.921.159-1.383.258-13.443 2.863-26.148 10.718-35.774 22.119-1.823 2.159-3.499 4.405-5.025 6.719l42.183 8.194v-37.29z" fill="#04db7b"/><path d="m296.372 187.586c.652-.114 1.303-.225 1.956-.364 13.443-2.863 26.148-10.718 35.772-22.119 9.626-11.401 15.215-25.212 15.738-38.891.229-5.987-.566-11.748-2.256-17.073h-51.21l-8.372 40.195z" fill="#fb8315"/><path d="m258.957 178.415c7.802 6.53 17.82 9.969 28.507 9.969 2.929 0 5.91-.274 8.908-.798v-78.447h-42.183c-6.534 9.908-10.288 21.084-10.711 32.172-.567 14.87 5.074 28.394 15.479 37.104z" fill="#fb9b3b"/></g></g></g></svg>